<mxfile host="app.diagrams.net" modified="2023-05-03T13:31:04.557Z" agent="Mozilla/5.0 (Windows NT 10.0; Win64; x64) AppleWebKit/537.36 (KHTML, like Gecko) Chrome/112.0.0.0 Safari/537.36" etag="-mu-Pz6cutFcKMAtRkLK" version="21.2.3" type="onedrive">
  <diagram name="Page-1" id="2YBvvXClWsGukQMizWep">
    <mxGraphModel grid="1" page="1" gridSize="10" guides="1" tooltips="1" connect="1" arrows="1" fold="1" pageScale="1" pageWidth="850" pageHeight="1100" math="0" shadow="0">
      <root>
        <mxCell id="0" />
        <mxCell id="1" parent="0" />
        <mxCell id="vbn1vjWYSr6YsiNQEqlZ-1" value="cd: MakeOrdersOfToday" style="shape=umlFrame;whiteSpace=wrap;html=1;pointerEvents=0;width=211;height=19;" vertex="1" parent="1">
          <mxGeometry x="9" y="11" width="651" height="259" as="geometry" />
        </mxCell>
        <mxCell id="vbn1vjWYSr6YsiNQEqlZ-34" style="edgeStyle=none;rounded=0;orthogonalLoop=1;jettySize=auto;html=1;endArrow=none;endFill=0;entryX=0;entryY=0;entryDx=0;entryDy=0;" edge="1" parent="1" target="vbn1vjWYSr6YsiNQEqlZ-33">
          <mxGeometry relative="1" as="geometry">
            <mxPoint x="10" y="80" as="sourcePoint" />
          </mxGeometry>
        </mxCell>
        <mxCell id="vbn1vjWYSr6YsiNQEqlZ-33" value="OrderManagment" style="html=1;whiteSpace=wrap;" vertex="1" parent="1">
          <mxGeometry x="80" y="80" width="560" height="40" as="geometry" />
        </mxCell>
        <mxCell id="vbn1vjWYSr6YsiNQEqlZ-38" value="MakeOrdersOfToday()" style="html=1;verticalAlign=bottom;endArrow=block;edgeStyle=orthogonalEdgeStyle;elbow=vertical;strokeColor=default;curved=1;shadow=0;" edge="1" parent="1">
          <mxGeometry x="-0.0857" y="7" width="80" relative="1" as="geometry">
            <mxPoint x="34" y="70" as="sourcePoint" />
            <mxPoint x="104" y="70" as="targetPoint" />
            <mxPoint as="offset" />
          </mxGeometry>
        </mxCell>
        <mxCell id="-T0FkvyXYJcLi5wVd7wv-1" value="" style="endArrow=none;html=1;rounded=0;entryX=0;entryY=1;entryDx=0;entryDy=0;exitX=0.5;exitY=1;exitDx=0;exitDy=0;" edge="1" parent="1">
          <mxGeometry width="50" height="50" relative="1" as="geometry">
            <mxPoint x="130" y="120" as="sourcePoint" />
            <mxPoint x="90" y="120" as="targetPoint" />
            <Array as="points">
              <mxPoint x="130" y="139" />
              <mxPoint x="90" y="139" />
            </Array>
          </mxGeometry>
        </mxCell>
        <mxCell id="-T0FkvyXYJcLi5wVd7wv-7" value="&lt;font style=&quot;font-size: 9px;&quot;&gt;2. *[report in reportsCollection]&lt;br&gt;2.1 [report.getDay() == currentDay]&lt;br&gt;2.1.2 CreateOrderAccordingToReport(report)&lt;br&gt;:OrderManagement&lt;br&gt;&lt;/font&gt;" style="html=1;verticalAlign=bottom;endArrow=block;edgeStyle=elbowEdgeStyle;elbow=vertical;curved=0;rounded=0;" edge="1" parent="1">
          <mxGeometry x="0.0526" y="9" width="80" relative="1" as="geometry">
            <mxPoint x="116" y="208" as="sourcePoint" />
            <mxPoint x="153" y="207" as="targetPoint" />
            <mxPoint as="offset" />
          </mxGeometry>
        </mxCell>
        <mxCell id="z478cym8GJyaMH4K4kqJ-1" value="&lt;u&gt;report: PeriodicReport&lt;/u&gt;" style="html=1;whiteSpace=wrap;" vertex="1" parent="1">
          <mxGeometry x="345" y="220" width="90" height="40" as="geometry" />
        </mxCell>
        <mxCell id="z478cym8GJyaMH4K4kqJ-4" value="&lt;font style=&quot;font-size: 9px;&quot;&gt;2.1.1 getDay()&lt;br&gt;&lt;/font&gt;" style="html=1;verticalAlign=bottom;endArrow=block;edgeStyle=elbowEdgeStyle;elbow=vertical;curved=0;rounded=0;" edge="1" parent="1">
          <mxGeometry x="0.1429" y="40" width="80" relative="1" as="geometry">
            <mxPoint x="410" y="129" as="sourcePoint" />
            <mxPoint x="410" y="199" as="targetPoint" />
            <mxPoint as="offset" />
          </mxGeometry>
        </mxCell>
        <mxCell id="C3kit6NndDbzKqDZ5IC6-1" value="" style="endArrow=open;endFill=1;endSize=12;html=1;rounded=0;entryX=0.415;entryY=-0.019;entryDx=0;entryDy=0;entryPerimeter=0;" edge="1" parent="1" target="z478cym8GJyaMH4K4kqJ-1">
          <mxGeometry width="160" relative="1" as="geometry">
            <mxPoint x="382" y="120" as="sourcePoint" />
            <mxPoint x="510" y="270" as="targetPoint" />
          </mxGeometry>
        </mxCell>
        <mxCell id="6OYqYHWzEkeg9c6uU1MU-1" value="&lt;u&gt;&lt;font style=&quot;font-size: 11px;&quot;&gt;reportDataMap: PeriodicReportDataMapper&lt;/font&gt;&lt;/u&gt;" style="html=1;whiteSpace=wrap;" vertex="1" parent="1">
          <mxGeometry x="193" y="220" width="140" height="40" as="geometry" />
        </mxCell>
        <mxCell id="6OYqYHWzEkeg9c6uU1MU-2" value="&lt;font style=&quot;font-size: 9px;&quot;&gt;1. reportsCollection= findAll()&lt;br&gt;&lt;/font&gt;" style="html=1;verticalAlign=bottom;endArrow=block;edgeStyle=elbowEdgeStyle;elbow=vertical;curved=0;rounded=0;" edge="1" parent="1">
          <mxGeometry x="-1" y="10" width="80" relative="1" as="geometry">
            <mxPoint x="280" y="150" as="sourcePoint" />
            <mxPoint x="280" y="190" as="targetPoint" />
            <mxPoint as="offset" />
          </mxGeometry>
        </mxCell>
        <mxCell id="6OYqYHWzEkeg9c6uU1MU-4" value="" style="endArrow=open;endFill=1;endSize=12;html=1;rounded=0;exitX=0.305;exitY=1.088;exitDx=0;exitDy=0;entryX=0.444;entryY=0.021;entryDx=0;entryDy=0;entryPerimeter=0;exitPerimeter=0;" edge="1" parent="1" source="vbn1vjWYSr6YsiNQEqlZ-33">
          <mxGeometry width="160" relative="1" as="geometry">
            <mxPoint x="247" y="119" as="sourcePoint" />
            <mxPoint x="252" y="220" as="targetPoint" />
          </mxGeometry>
        </mxCell>
      </root>
    </mxGraphModel>
  </diagram>
</mxfile>
